HIERARCHY
ROOT SpineBase
{
  OFFSET 0.000000 0.000000 0.000000
  CHANNELS 6 Xposition Yposition Zposition Zrotation Xrotation Yrotation
  JOINT SpineMid
  {
    OFFSET 0.000000 32.249630 0.000000
    CHANNELS 3 Zrotation Xrotation Yrotation
    JOINT SpineShoulder
    {
      OFFSET -0.184265 24.026528 -1.050602
      CHANNELS 3 Zrotation Xrotation Yrotation
      JOINT Neck
      {
        OFFSET -0.238558 7.992095 -0.675226
        CHANNELS 3 Zrotation Xrotation Yrotation
        JOINT Head
        {
          OFFSET 1.919496 10.243000 4.350542
          CHANNELS 3 Zrotation Xrotation Yrotation
          End Site
          {
            OFFSET 0 0 0
          }
        }
      }
      JOINT ShoulderLeft
      {
        OFFSET 2.112704 -4.343654 -13.639214
        CHANNELS 3 Zrotation Xrotation Yrotation
        JOINT ElbowLeft
        {
          OFFSET 5.905862 -26.536045 -5.234701
          CHANNELS 3 Zrotation Xrotation Yrotation
          JOINT WristLeft
          {
            OFFSET 6.146071 -21.463617 -1.842121
            CHANNELS 3 Zrotation Xrotation Yrotation
            JOINT HandLeft
            {
              OFFSET 1.751652 -9.503750 -2.047341
              CHANNELS 3 Zrotation Xrotation Yrotation
              JOINT HandTipLeft
              {
                OFFSET 1.040193 -7.085362 1.234565
                CHANNELS 3 Zrotation Xrotation Yrotation
                End Site
                {
                  OFFSET 0 0 0
                }
              }
              JOINT ThumbLeft
              {
                OFFSET 1.387391 1.311802 1.453972
                CHANNELS 3 Zrotation Xrotation Yrotation
                End Site
                {
                  OFFSET 0 0 0
                }
              }
            }
          }
        }
      }
      JOINT ShoulderRight
      {
        OFFSET 17.281881 -8.068385 -7.851323
        CHANNELS 3 Zrotation Xrotation Yrotation
        JOINT ElbowRight
        {
          OFFSET -5.261218 -28.106284 -9.781944
          CHANNELS 3 Zrotation Xrotation Yrotation
          JOINT WristRight
          {
            OFFSET -0.609250 9.952617 23.697145
            CHANNELS 3 Zrotation Xrotation Yrotation
            JOINT HandRight
            {
              OFFSET -0.461336 0.971107 0.039020
              CHANNELS 3 Zrotation Xrotation Yrotation
              JOINT HandTipRight
              {
                OFFSET -0.973609 3.237024 3.559305
                CHANNELS 3 Zrotation Xrotation Yrotation
                End Site
                {
                  OFFSET 0 0 0
                }
              }
              JOINT ThumbRight
              {
                OFFSET -1.115403 1.188432 -2.833897
                CHANNELS 3 Zrotation Xrotation Yrotation
                End Site
                {
                  OFFSET 0 0 0
                }
              }
            }
          }
        }
      }
    }
  }
  JOINT HipLeft
  {
    OFFSET -5.081061 2.142867 -5.420806
    CHANNELS 3 Zrotation Xrotation Yrotation
    JOINT KneeLeft
    {
      OFFSET 9.624620 -40.226647 3.763781
      CHANNELS 3 Zrotation Xrotation Yrotation
      JOINT AnkleLeft
      {
        OFFSET -3.488569 -34.849085 0.313019
        CHANNELS 3 Zrotation Xrotation Yrotation
        JOINT FootLeft
        {
          OFFSET 6.491510 -5.763950 0.089687
          CHANNELS 3 Zrotation Xrotation Yrotation
          End Site
          {
            OFFSET 0 0 0
          }
        }
      }
    }
  }
  JOINT HipRight
  {
    OFFSET 7.172398 -0.443174 -0.988492
    CHANNELS 3 Zrotation Xrotation Yrotation
    JOINT KneeRight
    {
      OFFSET -5.224525 -39.401622 1.732897
      CHANNELS 3 Zrotation Xrotation Yrotation
      JOINT AnkleRight
      {
        OFFSET -15.523780 -33.334183 10.885753
        CHANNELS 3 Zrotation Xrotation Yrotation
        JOINT FootRight
        {
          OFFSET 3.862053 -8.494032 -2.130777
          CHANNELS 3 Zrotation Xrotation Yrotation
          End Site
          {
            OFFSET 0 0 0
          }
        }
      }
    }
  }
}
MOTION
Frames: 8
Frame Time: 0.033333
-102.052828 81.673011 303.539808 -0.000000 0.000000 -19.886044 0.000000 0.000000 19.886044 -0.000000 0.000000 0.000000 -0.000000 0.000000 0.000000 0.000000 0.000000 0.000000 -0.000000 0.000000 0.000000 -0.000000 0.000000 0.000000 -0.000000 0.000000 0.000000 -0.000000 0.000000 0.000000 0.000000 0.000000 0.000000 0.000000 0.000000 0.000000 -0.000000 0.000000 0.000000 -0.000000 0.000000 0.000000 -0.000000 0.000000 0.000000 -0.000000 0.000000 0.000000 0.000000 0.000000 0.000000 0.000000 0.000000 0.000000 0.000000 0.000000 19.886044 -0.000000 0.000000 0.000000 -0.000000 0.000000 0.000000 0.000000 0.000000 0.000000 0.000000 0.000000 19.886044 -0.000000 0.000000 0.000000 -0.000000 0.000000 0.000000 0.000000 0.000000 0.000000
-102.014501 81.538864 303.450774 0.156274 0.059177 -19.072790 -0.128358 -0.106994 19.072590 -0.000000 0.000000 0.000000 -0.000000 0.000000 0.000000 0.000000 0.000000 0.000000 -0.000000 0.000000 0.000000 1.719516 -3.898441 -1.204105 -1.416714 -5.243995 -0.422325 4.160387 6.724773 1.567783 0.000000 0.000000 0.000000 0.000000 0.000000 0.000000 -1.338615 1.058084 0.278692 1.333683 -1.064294 -0.253943 23.951437 26.953006 5.618917 -28.622937 -21.869303 -17.082071 0.000000 0.000000 0.000000 0.000000 0.000000 0.000000 -0.128358 -0.106994 19.072590 -0.000000 0.000000 0.000000 -0.000000 0.000000 0.000000 0.000000 0.000000 0.000000 -3.220739 -4.766434 19.194851 8.899342 6.623079 -0.874267 -0.839920 9.820286 4.664403 0.000000 0.000000 0.000000
-101.972962 81.436692 303.358927 0.302901 0.117634 -18.632352 -0.249443 -0.208242 18.631587 -0.000000 0.000000 0.000000 -0.000000 0.000000 0.000000 0.000000 0.000000 0.000000 -0.000000 0.000000 0.000000 3.202076 -7.333121 -2.166659 -2.786779 -10.647194 -0.798973 7.680913 13.654774 1.960292 0.000000 0.000000 0.000000 0.000000 0.000000 0.000000 -2.840446 2.303182 0.607617 2.705887 -3.887642 -0.355056 28.258640 31.473097 4.264051 -32.507882 -22.802532 -19.827312 0.000000 0.000000 0.000000 0.000000 0.000000 0.000000 -0.249443 -0.208242 18.631587 -0.000000 0.000000 0.000000 -0.943069 0.323147 0.355229 0.000000 0.000000 0.000000 -6.174135 -8.899608 18.632980 17.229129 12.391956 -2.558206 -2.696723 17.857613 8.182356 0.000000 0.000000 0.000000
-101.928210 81.366495 303.264265 0.440276 0.175508 -18.563746 -0.361500 -0.306537 18.562105 -0.000000 0.000000 0.000000 -0.000000 0.000000 0.000000 0.000000 0.000000 0.000000 -0.203752 -1.182780 -0.225707 4.730800 -9.168261 -2.813925 -4.156919 -15.638598 -1.050719 10.824814 20.094348 1.434374 0.000000 0.000000 0.000000 0.000000 0.000000 0.000000 -4.521507 3.751738 1.001243 4.239401 -6.136710 -0.382359 29.450985 31.752250 3.316092 -32.944549 -22.303557 -19.665407 0.000000 0.000000 0.000000 0.000000 0.000000 0.000000 -0.361500 -0.306537 18.562105 -0.000000 0.000000 0.000000 -1.306154 0.358451 0.392516 0.000000 0.000000 0.000000 -8.754568 -12.413387 18.282578 24.877804 17.148148 -4.748523 -5.032809 23.652184 10.681674 0.000000 0.000000 0.000000
-101.880246 81.328272 303.166790 0.568752 0.232928 -18.863371 -0.462909 -0.404292 18.860582 -0.000000 0.000000 0.000000 -0.000000 0.000000 0.000000 0.000000 0.000000 0.000000 -0.113824 -1.666728 -0.351260 5.830170 -11.362380 -3.390523 -5.551805 -19.864618 -1.127260 13.765118 25.632162 0.260731 0.000000 0.000000 0.000000 0.000000 0.000000 0.000000 -6.397809 5.417868 1.477208 5.912431 -8.617232 -0.295399 29.461576 30.497237 2.402914 -31.878375 -20.998649 -18.219770 0.000000 0.000000 0.000000 0.000000 0.000000 0.000000 -1.395836 -0.628606 18.783997 0.955425 -0.088095 0.068910 -1.597150 0.310885 0.334878 0.000000 0.000000 0.000000 -10.888010 -15.355232 18.219334 31.695028 20.867550 -7.132235 -7.378809 27.543061 12.369859 0.000000 0.000000 0.000000
-101.829070 81.322023 303.066501 0.688640 0.290025 -19.525171 -0.552128 -0.503485 19.521002 -0.757639 0.412003 -0.049014 0.758011 -0.411319 0.054459 0.000000 0.000000 0.000000 0.813928 -2.605317 -0.444885 6.762456 -13.222373 -3.846030 -6.987793 -23.186744 -1.003989 16.572400 30.118185 -1.310891 0.000000 0.000000 0.000000 0.000000 0.000000 0.000000 -7.725835 6.896423 2.049526 7.738120 -11.346152 -0.078256 28.611256 28.036706 1.458286 -29.825595 -18.977193 -15.844727 0.000000 0.000000 0.000000 0.000000 0.000000 0.000000 -1.615449 -0.961728 19.380654 1.598211 -0.672584 0.207605 -2.256930 0.936189 0.128792 0.000000 0.000000 0.000000 -12.529208 -17.783675 18.504585 37.524390 23.622760 -9.421096 -9.448920 30.055756 13.447868 0.000000 0.000000 0.000000
-101.771708 81.343651 302.941746 0.802462 0.371764 -21.082137 -0.615063 -0.635498 21.076123 -0.852419 0.508105 -0.053105 0.852923 -0.507258 0.060660 0.000000 0.000000 0.000000 1.228235 -3.471963 -0.662925 7.823249 -15.267809 -4.308873 -9.900431 -25.576940 -0.215181 20.768821 35.382536 -3.969413 0.000000 0.000000 0.000000 0.000000 0.000000 0.000000 -11.078450 9.818289 3.106791 10.760039 -15.535572 0.343254 25.537720 22.668687 0.156555 -25.055163 -14.588090 -11.217956 0.000000 0.000000 0.000000 0.000000 0.000000 0.000000 -1.751146 -1.561816 20.814260 1.904648 -0.323261 0.317276 -2.215353 0.566559 -0.342747 0.000000 0.000000 0.000000 -14.009174 -20.520468 19.586697 44.270514 26.263868 -12.231139 -11.979068 32.248237 14.356257 0.000000 0.000000 0.000000
-101.714871 81.451784 302.826188 0.899920 0.436558 -23.010865 -1.032269 -0.026596 23.004163 -0.877377 -0.216192 -0.073029 0.938746 -0.598162 0.066313 0.000000 0.000000 0.000000 1.639043 -4.267601 -0.862926 8.719579 -16.740874 -4.613277 -12.141826 -27.827883 0.434736 24.409552 38.376243 -6.555936 0.000000 0.000000 0.000000 0.000000 0.000000 0.000000 -14.600682 12.942867 4.362213 13.852229 -19.998711 1.125679 22.772055 17.641319 -1.535548 -21.309330 -10.369563 -7.176094 0.000000 0.000000 0.000000 0.000000 0.000000 0.000000 -1.747278 -2.196200 22.611620 2.062348 0.123019 0.430308 -2.281463 0.173038 -0.807006 0.000000 0.000000 0.000000 -14.482368 -22.264535 21.238935 48.314874 27.523653 -13.906847 -13.751707 35.036589 15.432875 0.000000 0.000000 0.000000
